<?xml version="1.0" encoding="utf-8"?>
<!-- Generator: Adobe Illustrator 22.0.0, SVG Export Plug-In . SVG Version: 6.00 Build 0)  -->
<svg version="1.1" id="Layer_1" xmlns="http://www.w3.org/2000/svg" xmlns:xlink="http://www.w3.org/1999/xlink" x="0px" y="0px"
	 viewBox="0 0 158.4 174.3" style="enable-background:new 0 0 158.4 174.3;" xml:space="preserve">
<style type="text/css">
	.st0{fill:#5C5C5C;}
	.st1{fill:#282828;}
	.st2{fill:#777777;}
	.st3{fill:#A8A8A8;}
</style>
<g>
	<g id="XMLID_626_">
		<g id="XMLID_644_">
			<path id="XMLID_653_" class="st0" d="M39.9,80.3v-0.8h5.6V80c0,1.5,0.9,2.5,2.3,2.5c1.3,0,2.2-1,2.2-2.5V67h5.6v13.3
				c0,4.4-3.2,7.4-7.8,7.4C43.1,87.7,39.9,84.7,39.9,80.3z"/>
			<path id="XMLID_650_" class="st0" d="M70.9,83.9h-7.2l-1.1,3.3h-6L64.6,67h5.4l8.1,20.2h-6.1L70.9,83.9z M67.4,73.3l-2.2,6.3h4.5
				L67.4,73.3z"/>
			<path id="XMLID_648_" class="st0" d="M96.8,67L89,87.2h-5.2L75.9,67h6.4l4.1,12.6l4-12.6H96.8z"/>
			<path id="XMLID_645_" class="st0" d="M108.8,83.9h-7.2l-1.1,3.3h-6l7.9-20.2h5.4l8.1,20.2H110L108.8,83.9z M105.2,73.3l-2.2,6.3
				h4.5L105.2,73.3z"/>
		</g>
		<g id="XMLID_636_">
			<path id="XMLID_641_" class="st1" d="M66.5,104.9c0,7.5-5.5,12.9-13.3,12.9H42.8V92h10.4C61,92,66.5,97.4,66.5,104.9z
				 M59.3,104.9c0-3.8-2.5-6.4-6.4-6.4h-3v12.8h3C56.7,111.3,59.3,108.7,59.3,104.9z"/>
			<path id="XMLID_639_" class="st1" d="M87.1,111.7v6.2H70.2V92h16.5v6.1h-9.4v3.8h8.5v5.8h-8.5v3.9H87.1z"/>
			<path id="XMLID_637_" class="st1" d="M115.3,92l-9.9,25.8h-6.6L88.7,92h8.1l5.3,16l5.1-16H115.3z"/>
		</g>
		<g id="XMLID_627_">
			<path id="XMLID_633_" class="st2" d="M66.8,134.2c0,7.1-5.2,12.2-12.6,12.2h-9.9V122h9.9C61.6,122,66.8,127,66.8,134.2z
				 M59.9,134.2c0-3.6-2.4-6-6-6h-2.8v12.1h2.8C57.5,140.2,59.9,137.8,59.9,134.2z"/>
			<path id="XMLID_630_" class="st2" d="M83.9,142.4h-8.6l-1.4,4h-7.2l9.6-24.4h6.6l9.8,24.4h-7.4L83.9,142.4z M79.6,129.6l-2.7,7.6
				h5.4L79.6,129.6z"/>
			<path id="XMLID_628_" class="st2" d="M105,136.8v9.5h-6.8v-9.6L89.7,122h7.4l4.5,8.8l4.5-8.8h7.5L105,136.8z"/>
		</g>
	</g>
	<g id="XMLID_623_">
		<path id="XMLID_625_" class="st0" d="M76,57.2c-3.4-2.9-6.6-6-8.7-9.9c-1.7-3.2-1.7-6.4,0.8-9.1c2.3-2.5,4.8-4.7,7.3-6.9
			c1.1-1.1,2.4-2,3.6-3c5.3-4.7,6.4-7.3,6.7-15.1c1.7,2.8,1.7,5.5,0.9,8.3c-1.3,4.4-4.1,7.7-7.4,10.7c-1.8,1.7-3.8,3.3-5.6,5.1
			c-4.3,4.5-4.7,8.8-1.4,14.1C73.5,53.4,74.8,55.3,76,57.2"/>
		<path id="XMLID_624_" class="st0" d="M93.7,30.1c-2.7,1.9-5,3.6-7.3,5.3c-0.8,0.6-1.5,1.3-2.2,2.1c-3.2,3.3-3.4,5.8-0.9,9.7
			c0.4,0.7,0.9,1.3,1.3,1.9c2.4,3.5,2.1,6.1-0.8,9.2c-0.7,0.8-1.6,1.5-2.5,2.1c2.1-3.4,0.9-6.1-1.3-8.9c-4.3-5.6-3.6-10.8,1.8-15.3
			C85.2,33.4,89.1,31.6,93.7,30.1"/>
	</g>
	<path id="XMLID_622_" class="st3" d="M126.7,122.9l-0.5,12.2c-0.3,5.7-1.4,8.3-5.2,8.3h-1.7v6.9h4.2c5.7,0,8.6-4.2,9.1-11.6
		l0.6-14.7c0.3-5.3,1-14.2,5.5-14.6v-2.6v-0.4v-2.6c-4.5-0.4-5.2-9.3-5.5-14.6l-0.6-14.7c-0.5-7.4-3.4-11.6-9.1-11.6h-4.2v6.9h1.7
		c3.8,0,4.9,2.6,5.2,8.3l0.5,12.2c0.2,4.4,1,14.3,5.4,16.2C127.7,108.6,126.9,118.5,126.7,122.9z"/>
	<path id="XMLID_621_" class="st3" d="M31.7,122.9l0.5,12.2c0.3,5.7,1.4,8.3,5.2,8.3h1.7v6.9h-4.2c-5.7,0-8.6-4.2-9.1-11.6
		l-0.6-14.7c-0.3-5.3-1-14.2-5.5-14.6v-2.6v-0.4v-2.6c4.5-0.4,5.2-9.3,5.5-14.6l0.6-14.7c0.5-7.4,3.4-11.6,9.1-11.6h4.2v6.9h-1.7
		c-3.8,0-4.9,2.6-5.2,8.3l-0.5,12.2c-0.2,4.4-1,14.3-5.4,16.2C30.6,108.6,31.5,118.5,31.7,122.9z"/>
	<g id="XMLID_570_">
		<path id="XMLID_619_" class="st1" d="M40.5,157.6v-0.3H41v0.4c0,0.2,0,0.3,0.1,0.4c0,0.1,0.1,0.1,0.2,0.1c0.1,0,0.2,0,0.2-0.1
			c0-0.1,0-0.2,0-0.3c0-0.1,0-0.3-0.1-0.4c-0.1-0.1-0.1-0.2-0.3-0.3l-0.3-0.3c-0.1-0.1-0.2-0.3-0.3-0.4c-0.1-0.1-0.1-0.3-0.1-0.5
			c0-0.3,0.1-0.5,0.2-0.7c0.1-0.1,0.3-0.2,0.6-0.2s0.5,0.1,0.6,0.2c0.1,0.2,0.1,0.4,0.1,0.7v0.2h-0.5V156c0-0.2,0-0.3,0-0.4
			c0-0.1-0.1-0.1-0.2-0.1c-0.1,0-0.1,0-0.2,0.1c0,0.1-0.1,0.1-0.1,0.3c0,0.1,0,0.2,0.1,0.3c0,0.1,0.1,0.2,0.2,0.3l0.3,0.3
			c0.1,0.2,0.3,0.3,0.3,0.5c0.1,0.2,0.1,0.3,0.1,0.5c0,0.3-0.1,0.6-0.2,0.7c-0.1,0.2-0.3,0.2-0.6,0.2s-0.5-0.1-0.6-0.3
			S40.5,158,40.5,157.6z"/>
		<path id="XMLID_617_" class="st1" d="M42.3,159.2v-0.4h0.2c0.1,0,0.1,0,0.2,0c0,0,0.1,0,0.1-0.1c0,0,0,0,0-0.1c0,0,0-0.1,0-0.1
			l-0.5-2.9h0.5l0.2,1.6L43,158h0l0.1-0.8l0.2-1.6h0.5l-0.5,3.2c0,0.2-0.1,0.3-0.1,0.3c-0.1,0.1-0.1,0.1-0.3,0.1H42.3z"/>
		<path id="XMLID_615_" class="st1" d="M44,156.3c0-0.5,0.2-0.7,0.7-0.7c0.2,0,0.4,0.1,0.5,0.2c0.1,0.1,0.2,0.4,0.2,0.7v0.2h-0.5
			v-0.2c0-0.1,0-0.2,0-0.3c0-0.1-0.1-0.1-0.2-0.1c-0.1,0-0.1,0-0.2,0.1c0,0-0.1,0.1-0.1,0.2c0,0.2,0.1,0.3,0.2,0.4L45,157
			c0.3,0.3,0.4,0.6,0.4,0.9c0,0.3-0.1,0.5-0.2,0.6c-0.1,0.1-0.3,0.2-0.5,0.2c-0.2,0-0.4-0.1-0.5-0.2c-0.1-0.1-0.2-0.4-0.2-0.7v-0.2
			h0.5v0.2c0,0.3,0.1,0.4,0.2,0.4c0.1,0,0.1,0,0.2-0.1c0,0,0-0.1,0-0.2c0-0.2-0.1-0.4-0.3-0.6c0,0,0,0-0.1-0.1
			c-0.1-0.1-0.1-0.1-0.1-0.1C44.1,156.9,44,156.6,44,156.3z"/>
		<path id="XMLID_613_" class="st1" d="M46.4,158.7c-0.2,0-0.3,0-0.4-0.1c-0.1-0.1-0.1-0.2-0.1-0.4v-2.1h-0.2v-0.4h0.2v-0.6h0.5v0.6
			h0.3v0.4h-0.3v2c0,0.1,0,0.1,0.1,0.1c0,0,0.1,0,0.2,0v0.4H46.4z"/>
		<path id="XMLID_610_" class="st1" d="M47.8,158.7c-0.3,0-0.6-0.1-0.7-0.4c-0.1-0.2-0.1-0.4-0.1-0.7v-1.1c0-0.6,0.3-0.9,0.8-0.9
			c0.3,0,0.5,0.1,0.6,0.2c0.1,0.2,0.2,0.4,0.2,0.7v0.6h-1v0.6c0,0.2,0,0.3,0.1,0.4c0,0.1,0.1,0.1,0.2,0.1c0.1,0,0.1,0,0.1-0.1
			c0-0.1,0.1-0.1,0.1-0.2c0-0.1,0-0.1,0-0.3v-0.3h0.5v0.2c0,0.3,0,0.5-0.1,0.6c0,0.1-0.1,0.2-0.1,0.3
			C48.3,158.6,48.1,158.7,47.8,158.7z M47.6,156.8h0.4v-0.4c0-0.2,0-0.3,0-0.4c0-0.1-0.1-0.1-0.2-0.1h0c-0.1,0-0.2,0.1-0.2,0.3
			c0,0,0,0.1,0,0.2V156.8z"/>
		<path id="XMLID_608_" class="st1" d="M51.1,158.6v-2.3c0-0.2-0.1-0.3-0.2-0.3c-0.1,0-0.1,0-0.2,0.1c0,0.1-0.1,0.1-0.1,0.2v2.3
			h-0.5v-2.3c0-0.2-0.1-0.3-0.2-0.3c-0.1,0-0.2,0-0.2,0.1c0,0.1-0.1,0.2-0.1,0.3v2.3h-0.5v-3h0.5v0.3c0-0.1,0.1-0.2,0.2-0.3
			c0.1-0.1,0.2-0.1,0.3-0.1c0.2,0,0.4,0.1,0.4,0.3c0.1-0.2,0.3-0.3,0.5-0.3c0.2,0,0.3,0.1,0.4,0.2c0.1,0.1,0.1,0.3,0.1,0.6v2.3H51.1
			z"/>
		<path id="XMLID_606_" class="st1" d="M52.2,158.6v-0.5h0.5v0.5H52.2z"/>
		<path id="XMLID_603_" class="st1" d="M53.9,158.7c-0.3,0-0.5-0.1-0.6-0.3c-0.1-0.2-0.2-0.4-0.2-0.7v-1.1c0-0.6,0.3-1,0.8-1
			c0.5,0,0.8,0.3,0.8,1v1.1c0,0.5-0.1,0.8-0.4,0.9C54.2,158.6,54.1,158.7,53.9,158.7z M53.9,158.2c0.1,0,0.1,0,0.2-0.1
			c0-0.1,0-0.2,0-0.3v-1.4c0-0.1,0-0.3,0-0.3c0-0.1-0.1-0.1-0.2-0.1c-0.1,0-0.1,0-0.2,0.1c0,0.1,0,0.2,0,0.3v1.4
			c0,0.2,0,0.4,0.1,0.4C53.8,158.2,53.9,158.2,53.9,158.2z"/>
		<path id="XMLID_601_" class="st1" d="M55.7,158.7c-0.4,0-0.5-0.2-0.5-0.7v-2.3h0.5v2.3c0,0.1,0,0.2,0,0.3c0,0.1,0.1,0.1,0.2,0.1
			c0.2,0,0.2-0.1,0.2-0.4l0-2.3h0.5v3h-0.5v-0.3C56.1,158.6,55.9,158.7,55.7,158.7z"/>
		<path id="XMLID_599_" class="st1" d="M57.8,158.7c-0.2,0-0.3,0-0.4-0.1c-0.1-0.1-0.1-0.2-0.1-0.4v-2.1H57v-0.4h0.2v-0.6h0.5v0.6
			h0.3v0.4h-0.3v2c0,0.1,0,0.1,0.1,0.1c0,0,0.1,0,0.2,0v0.4H57.8z"/>
		<path id="XMLID_597_" class="st1" d="M58.5,158.6v-0.5H59v0.5H58.5z"/>
		<path id="XMLID_594_" class="st1" d="M59.6,159.2v-3.6h0.5v0.3c0-0.1,0.1-0.2,0.2-0.2c0.1-0.1,0.2-0.1,0.3-0.1s0.2,0,0.2,0
			c0.1,0.1,0.2,0.2,0.3,0.3c0,0.2,0.1,0.3,0.1,0.6v1.1c0,0.4,0,0.6-0.1,0.7c-0.1,0.1-0.2,0.2-0.3,0.3c-0.1,0-0.1,0-0.2,0
			c-0.1,0-0.2,0-0.2-0.1c-0.1,0-0.1-0.1-0.2-0.2v0.8H59.6z M60.2,158.1c0,0.1,0.1,0.1,0.2,0.1c0.1,0,0.1,0,0.2-0.1s0-0.2,0-0.4v-1.3
			c0-0.2,0-0.4-0.1-0.4c0,0-0.1,0-0.1,0c-0.1,0-0.1,0-0.2,0.1c0,0.1-0.1,0.2-0.1,0.4v1.3C60.1,157.9,60.1,158,60.2,158.1z"/>
		<path id="XMLID_592_" class="st1" d="M62.7,155.6c0,0,0,0.1,0,0.3l0,0.1c-0.1,0-0.2,0-0.3,0.1c-0.1,0-0.2,0.1-0.2,0.2v2.4h-0.5v-3
			h0.5v0.3c0-0.1,0.1-0.2,0.2-0.3C62.4,155.6,62.5,155.6,62.7,155.6z"/>
		<path id="XMLID_589_" class="st1" d="M63,155.3v-0.5h0.5v0.5H63z M63,158.6v-3h0.5v3H63z"/>
		<path id="XMLID_587_" class="st1" d="M65.1,155.6c0.4,0,0.5,0.2,0.5,0.7v2.4h-0.5v-2.4c0-0.1,0-0.2-0.1-0.2c0,0-0.1-0.1-0.2-0.1
			c-0.1,0-0.1,0-0.2,0.1c0,0.1-0.1,0.2-0.1,0.3v2.3h-0.5v-3h0.5v0.3c0-0.1,0.1-0.2,0.2-0.3C64.9,155.6,65,155.6,65.1,155.6z"/>
		<path id="XMLID_584_" class="st1" d="M66.7,158.7c-0.2,0-0.3,0-0.4-0.1c-0.1-0.1-0.1-0.2-0.1-0.4v-2.1H66v-0.4h0.2v-0.6h0.5v0.6
			H67v0.4h-0.3v2c0,0.1,0,0.1,0.1,0.1c0,0,0.1,0,0.2,0v0.4H66.7z"/>
		<path id="XMLID_582_" class="st1" d="M67.4,158.6V155H68v3.6H67.4z"/>
		<path id="XMLID_580_" class="st1" d="M69.5,155.6c0.4,0,0.5,0.2,0.5,0.7v2.4h-0.5v-2.4c0-0.1,0-0.2-0.1-0.2c0,0-0.1-0.1-0.2-0.1
			c-0.1,0-0.1,0-0.2,0.1c0,0.1-0.1,0.2-0.1,0.3v2.3h-0.5v-3h0.5v0.3c0-0.1,0.1-0.2,0.2-0.3C69.3,155.6,69.4,155.6,69.5,155.6z"/>
	</g>
	<g id="XMLID_562_">
		<path id="XMLID_568_" class="st2" d="M80.7,160.5c-0.5,0-0.9-0.2-1.2-0.6c-0.3-0.4-0.4-1-0.4-1.9v-3.5c0-0.8,0.1-1.3,0.4-1.7
			c0.3-0.4,0.8-0.6,1.4-0.6c0.8,0,1.3,0.3,1.5,0.9c0.1,0.4,0.2,0.8,0.2,1.5v0.6h-1.2v-0.9c0-0.4,0-0.6-0.1-0.8
			c-0.1-0.2-0.2-0.2-0.4-0.2c-0.2,0-0.4,0.1-0.5,0.3c-0.1,0.2-0.1,0.5-0.1,1v3.5c0,0.5,0,0.9,0.1,1.1c0.1,0.2,0.2,0.3,0.5,0.3
			c0.2,0,0.4-0.1,0.5-0.3c0.1-0.2,0.1-0.6,0.1-1.1v-1.1h-0.6V156h1.7v4.4H82l-0.2-0.8c-0.1,0.3-0.2,0.5-0.4,0.6
			C81.2,160.5,80.9,160.5,80.7,160.5z"/>
		<path id="XMLID_565_" class="st2" d="M83.7,160.4v-8.1h1.8c0.6,0,1,0.2,1.3,0.5c0.3,0.4,0.4,0.9,0.4,1.6l0,3.7
			c0,0.8-0.1,1.4-0.4,1.8c-0.3,0.4-0.7,0.6-1.3,0.6H83.7z M85,159.5h0.4c0.2,0,0.4-0.1,0.5-0.2c0.1-0.1,0.2-0.4,0.2-0.8l0-4
			c0-0.4-0.1-0.7-0.2-0.9s-0.3-0.3-0.5-0.3H85V159.5z"/>
		<path id="XMLID_563_" class="st2" d="M88.4,160.4v-8.1h1.2v7.1h1.6v1.1H88.4z"/>
	</g>
	<g id="XMLID_507_">
		<path id="XMLID_519_" class="st1" d="M73.8,161.1c-0.4,0-0.7,0-0.9-0.1c-0.2-0.1-0.4-0.2-0.6-0.3c-0.2-0.2-0.3-0.4-0.3-0.6
			c-0.1-0.3-0.1-0.6-0.1-1v-4.9c0-0.4,0-0.8,0.1-1c0.1-0.3,0.2-0.5,0.3-0.6c0.2-0.2,0.3-0.3,0.6-0.3c0.2-0.1,0.5-0.1,0.9-0.1v0.9
			c-0.3,0-0.4,0.1-0.5,0.2c-0.1,0.1-0.1,0.4-0.1,0.9v4.9c0,0.5,0,0.8,0.1,0.9c0.1,0.1,0.3,0.2,0.5,0.2V161.1z"/>
		<path id="XMLID_516_" class="st1" d="M75.3,155.2l-0.3-2.9h1.1l-0.3,2.9H75.3z M76.9,155.2l-0.3-2.9h1.1l-0.3,2.9H76.9z"/>
		<path id="XMLID_513_" class="st1" d="M109,155.2l-0.3-2.9h1.1l-0.3,2.9H109z M110.7,155.2l-0.3-2.9h1.1l-0.3,2.9H110.7z"/>
		<path id="XMLID_511_" class="st1" d="M112.6,161.1v-0.9c0.3,0,0.4-0.1,0.5-0.2c0.1-0.1,0.1-0.4,0.1-0.9v-4.9c0-0.5,0-0.8-0.1-0.9
			c-0.1-0.1-0.3-0.2-0.5-0.2V152c0.4,0,0.7,0,0.9,0.1c0.2,0.1,0.4,0.2,0.6,0.3c0.2,0.2,0.3,0.4,0.3,0.6c0.1,0.3,0.1,0.6,0.1,1v4.9
			c0,0.4,0,0.8-0.1,1c-0.1,0.3-0.2,0.5-0.3,0.6c-0.2,0.2-0.3,0.3-0.6,0.3C113.3,161,113,161.1,112.6,161.1z"/>
		<path id="XMLID_508_" class="st1" d="M115.7,156.1v-1.4h1.4v1.4H115.7z M115.9,160.9l0.4-1.7h-0.6V158h1.4v1.2l-0.5,1.7H115.9z"/>
	</g>
	<g>
		<path id="XMLID_560_" class="st0" d="M92,160.4V160c0-0.4,0.1-0.8,0.2-1.3c0.1-0.4,0.4-0.9,0.7-1.4c0,0,0.1-0.2,0.3-0.6
			c0.2-0.4,0.4-0.6,0.5-0.8c0.2-0.4,0.4-0.9,0.4-1.6s-0.1-1-0.4-1c-0.2,0-0.4,0.2-0.5,0.6c0,0.2,0,0.4,0,0.6v1h-1.2V155
			c0-1,0.1-1.7,0.3-2c0.2-0.4,0.5-0.6,0.8-0.7c0.2-0.1,0.4-0.1,0.7-0.1c0.3,0,0.5,0.1,0.7,0.2c0.2,0.1,0.4,0.3,0.5,0.5
			c0.2,0.4,0.4,0.9,0.4,1.6c0,0.7-0.1,1.2-0.4,1.7c-0.3,0.5-0.5,0.9-0.8,1.3c-0.5,0.7-0.8,1.4-0.9,1.9h1.9v1H92z"/>
		<path id="XMLID_557_" class="st0" d="M99.4,160c-0.3,0.4-0.8,0.6-1.4,0.6c-0.6,0-1.1-0.2-1.4-0.6c-0.3-0.4-0.4-1-0.4-1.7v-3.9
			c0-0.7,0.1-1.3,0.4-1.6c0.3-0.4,0.8-0.5,1.4-0.5c0.6,0,1.1,0.2,1.4,0.5c0.3,0.4,0.4,0.9,0.4,1.6v3.9C99.8,159,99.7,159.6,99.4,160
			z M98,159.5c0.2,0,0.3-0.1,0.5-0.2c0.1-0.2,0.2-0.5,0.2-1v-4c0-0.6-0.1-0.9-0.4-1c-0.1,0-0.1,0-0.3,0c-0.1,0-0.2,0.1-0.4,0.2
			c-0.1,0.1-0.2,0.4-0.2,0.8v4c0,0.5,0.1,0.8,0.2,1C97.6,159.4,97.8,159.5,98,159.5z"/>
		<path id="XMLID_555_" class="st0" d="M101.5,160.4v-6.6c-0.1,0.1-0.3,0.2-0.4,0.3c-0.2,0.1-0.4,0.1-0.6,0.1v-0.9
			c0.3,0,0.5-0.1,0.7-0.3c0.2-0.2,0.4-0.4,0.5-0.7h1v8.1H101.5z"/>
		<g>
			<path class="st0" d="M103.9,158.5v-0.2h1.2v0.5c0,0.4,0.2,0.6,0.6,0.6c0.2,0,0.3-0.1,0.5-0.2s0.2-0.3,0.2-0.5v-2
				c-0.3,0.3-0.6,0.5-1,0.5c-1,0-1.6-0.8-1.6-2.5c0-1.7,0.6-2.6,1.9-2.6c1.2,0,1.8,0.7,1.8,2.2v4.1c0,0.6-0.2,1.1-0.5,1.5
				c-0.3,0.4-0.8,0.6-1.4,0.6c-0.6,0-1-0.2-1.4-0.6C104,159.6,103.9,159.1,103.9,158.5z M106.3,155.7v-1.7c0-0.5-0.2-0.7-0.7-0.7
				c-0.4,0-0.6,0.3-0.6,0.8v1.1c0,0.6,0.2,0.9,0.6,0.9C106,156.2,106.2,156.1,106.3,155.7z"/>
		</g>
	</g>
</g>
</svg>
